<svg xmlns="http://www.w3.org/2000/svg" width="24" height="24" viewBox="0 0 24 24">
  <title>ruler-pen</title>
  <g fill="none">
    <path d="M17.5715 18.9907L15.4578 21.1044C16.1167 21.7634 16.4462 22.0929 16.8138 22.2451C17.3038 22.4481 17.8544 22.4481 18.3445 22.2451C18.712 22.0929 19.0415 21.7634 19.7004 21.1044L20.9656 19.8392C21.7577 19.0472 22.1537 18.6512 22.3021 18.1945C22.4326 17.7928 22.4326 17.3602 22.3021 16.9585C22.1537 16.5018 21.7577 16.1058 20.9656 15.3138L8.68617 3.03429C7.89414 2.24226 7.49812 1.84624 7.04147 1.69786C6.63978 1.56735 6.20709 1.56735 5.8054 1.69786C5.34874 1.84624 4.95273 2.24226 4.16069 3.03429L2.88793 4.30705C2.23399 4.96099 1.90702 5.28796 1.75489 5.65182C1.54754 6.14773 1.54854 6.70624 1.75766 7.20141C1.91109 7.56471 2.23923 7.89051 2.89551 8.54211L5.00924 6.42838C5.39976 6.03786 6.03293 6.03786 6.42345 6.42838C6.81398 6.81891 6.81398 7.45207 6.42345 7.8426L4.30213 9.96392L14.036 19.6978L16.1573 17.5765C16.5478 17.186 17.181 17.186 17.5715 17.5765C17.9621 17.967 17.9621 18.6002 17.5715 18.9907Z" fill="url(#1752500502802-4771403_ruler-pen_existing_0_aut75e2kp)" data-glass="origin" mask="url(#1752500502802-4771403_ruler-pen_mask_alrdoff0r)"></path>
    <path d="M17.5715 18.9907L15.4578 21.1044C16.1167 21.7634 16.4462 22.0929 16.8138 22.2451C17.3038 22.4481 17.8544 22.4481 18.3445 22.2451C18.712 22.0929 19.0415 21.7634 19.7004 21.1044L20.9656 19.8392C21.7577 19.0472 22.1537 18.6512 22.3021 18.1945C22.4326 17.7928 22.4326 17.3602 22.3021 16.9585C22.1537 16.5018 21.7577 16.1058 20.9656 15.3138L8.68617 3.03429C7.89414 2.24226 7.49812 1.84624 7.04147 1.69786C6.63978 1.56735 6.20709 1.56735 5.8054 1.69786C5.34874 1.84624 4.95273 2.24226 4.16069 3.03429L2.88793 4.30705C2.23399 4.96099 1.90702 5.28796 1.75489 5.65182C1.54754 6.14773 1.54854 6.70624 1.75766 7.20141C1.91109 7.56471 2.23923 7.89051 2.89551 8.54211L5.00924 6.42838C5.39976 6.03786 6.03293 6.03786 6.42345 6.42838C6.81398 6.81891 6.81398 7.45207 6.42345 7.8426L4.30213 9.96392L14.036 19.6978L16.1573 17.5765C16.5478 17.186 17.181 17.186 17.5715 17.5765C17.9621 17.967 17.9621 18.6002 17.5715 18.9907Z" fill="url(#1752500502802-4771403_ruler-pen_existing_0_aut75e2kp)" data-glass="clone" filter="url(#1752500502802-4771403_ruler-pen_filter_2dcgk6oxb)" clip-path="url(#1752500502802-4771403_ruler-pen_clipPath_eehexvvp0)"></path>
    <path d="M16.0771 3.07477C17.4157 1.73621 19.5851 1.73739 20.9238 3.07574C22.2624 4.4144 22.2634 6.58376 20.9248 7.92242L9.27143 19.5757C8.65647 20.1907 7.34222 20.7042 5.99799 21.0992L5.99995 21.1011C5.12972 21.3568 4.24347 21.5669 3.35053 21.7496C2.68534 21.8856 2.11387 21.3141 2.24995 20.649C2.37524 20.0374 2.5473 19.2784 2.75874 18.5015L2.75678 18.4996C3.16721 16.9926 3.73276 15.4191 4.42378 14.7281L16.0771 3.07477Z" fill="url(#1752500502802-4771403_ruler-pen_existing_1_5id9ssfzo)" data-glass="blur"></path>
    <path d="M16.0771 3.07547C17.4157 1.73681 19.5851 1.73778 20.9237 3.07644C22.2623 4.41511 22.2633 6.58449 20.9247 7.92312L9.27139 19.5764L9.16788 19.6731C8.03362 20.6704 5.09211 21.3929 3.34952 21.7493L3.22647 21.7669C2.65678 21.8108 2.18858 21.3423 2.23233 20.7727L2.24991 20.6487C2.60682 18.9065 3.3298 15.9664 4.32706 14.8323L4.42374 14.7288L16.0771 3.07547ZM20.3935 3.60672C19.3474 2.56063 17.6528 2.5603 16.6073 3.60574L4.95401 15.2591C4.77846 15.4347 4.5779 15.7372 4.36905 16.1692C4.1646 16.5922 3.97183 17.097 3.79483 17.6399C3.44087 18.7257 3.16589 19.9126 2.98428 20.7991C2.96854 20.8759 2.99224 20.9319 3.0292 20.969C3.06628 21.0061 3.12226 21.0305 3.19913 21.0149C4.08593 20.8335 5.27399 20.5582 6.36026 20.2044C6.90337 20.0275 7.40791 19.8346 7.83096 19.6302C8.26301 19.4214 8.56551 19.2217 8.74112 19.0462L20.3944 7.39187C21.4398 6.34645 21.4395 4.65278 20.3935 3.60672Z" fill="url(#1752500502802-4771403_ruler-pen_existing_2_8pb1frn03)"></path>
    <defs>
      <linearGradient id="1752500502802-4771403_ruler-pen_existing_0_aut75e2kp" x1="12" y1="1.6" x2="12" y2="22.397" gradientUnits="userSpaceOnUse">
        <stop stop-color="#575757"></stop>
        <stop offset="1" stop-color="#151515"></stop>
      </linearGradient>
      <linearGradient id="1752500502802-4771403_ruler-pen_existing_1_5id9ssfzo" x1="12.079" y1="2.071" x2="12.079" y2="21.77" gradientUnits="userSpaceOnUse">
        <stop stop-color="#E3E3E5" stop-opacity=".6"></stop>
        <stop offset="1" stop-color="#BBBBC0" stop-opacity=".6"></stop>
      </linearGradient>
      <linearGradient id="1752500502802-4771403_ruler-pen_existing_2_8pb1frn03" x1="12.079" y1="2.072" x2="12.079" y2="13.479" gradientUnits="userSpaceOnUse">
        <stop stop-color="#fff"></stop>
        <stop offset="1" stop-color="#fff" stop-opacity="0"></stop>
      </linearGradient>
      <filter id="1752500502802-4771403_ruler-pen_filter_2dcgk6oxb" x="-100%" y="-100%" width="400%" height="400%" filterUnits="objectBoundingBox" primitiveUnits="userSpaceOnUse">
        <feGaussianBlur stdDeviation="2" x="0%" y="0%" width="100%" height="100%" in="SourceGraphic" edgeMode="none" result="blur"></feGaussianBlur>
      </filter>
      <clipPath id="1752500502802-4771403_ruler-pen_clipPath_eehexvvp0">
        <path d="M16.0771 3.07477C17.4157 1.73621 19.5851 1.73739 20.9238 3.07574C22.2624 4.4144 22.2634 6.58376 20.9248 7.92242L9.27143 19.5757C8.65647 20.1907 7.34222 20.7042 5.99799 21.0992L5.99995 21.1011C5.12972 21.3568 4.24347 21.5669 3.35053 21.7496C2.68534 21.8856 2.11387 21.3141 2.24995 20.649C2.37524 20.0374 2.5473 19.2784 2.75874 18.5015L2.75678 18.4996C3.16721 16.9926 3.73276 15.4191 4.42378 14.7281L16.0771 3.07477Z" fill="url(#1752500502802-4771403_ruler-pen_existing_1_5id9ssfzo)"></path>
      </clipPath>
      <mask id="1752500502802-4771403_ruler-pen_mask_alrdoff0r">
        <rect width="100%" height="100%" fill="#FFF"></rect>
        <path d="M16.0771 3.07477C17.4157 1.73621 19.5851 1.73739 20.9238 3.07574C22.2624 4.4144 22.2634 6.58376 20.9248 7.92242L9.27143 19.5757C8.65647 20.1907 7.34222 20.7042 5.99799 21.0992L5.99995 21.1011C5.12972 21.3568 4.24347 21.5669 3.35053 21.7496C2.68534 21.8856 2.11387 21.3141 2.24995 20.649C2.37524 20.0374 2.5473 19.2784 2.75874 18.5015L2.75678 18.4996C3.16721 16.9926 3.73276 15.4191 4.42378 14.7281L16.0771 3.07477Z" fill="#000"></path>
      </mask>
    </defs>
  </g>
</svg>